<?xml version="1.0" encoding="utf-8"?>
<!-- Generator: Adobe Illustrator 27.6.1, SVG Export Plug-In . SVG Version: 6.00 Build 0)  -->
<svg version="1.1" id="Component_1_1" xmlns="http://www.w3.org/2000/svg" xmlns:xlink="http://www.w3.org/1999/xlink" x="0px"
	 y="0px" viewBox="0 0 440.3 69" style="enable-background:new 0 0 440.3 69;" xml:space="preserve">
<style type="text/css">
	.st0{enable-background:new    ;}
	.st1{fill:#FFE8E8;}
</style>
<g class="st0">
	<path class="st1" d="M57.6,21.5v6.5h10.3v3.6H57.6v14.6c0,1,0.1,1.9,0.4,2.6c0.3,0.7,0.6,1.2,1.1,1.6c0.5,0.4,1,0.7,1.6,0.9
		c0.6,0.2,1.2,0.2,1.9,0.2c0.5,0,1,0,1.5-0.1c0.5-0.1,1-0.1,1.6-0.2c0.5-0.1,1-0.2,1.4-0.3s0.8-0.2,1.1-0.2l0.6,3.3
		c-0.4,0.2-0.8,0.4-1.4,0.6c-0.5,0.2-1.1,0.3-1.8,0.4c-0.6,0.1-1.3,0.2-2.1,0.3c-0.7,0.1-1.4,0.1-2.2,0.1c-1.2,0-2.3-0.2-3.3-0.5
		s-1.9-0.9-2.7-1.6c-0.8-0.7-1.4-1.7-1.8-2.9c-0.4-1.2-0.7-2.6-0.7-4.2V31.6h-7.1v-3.6h7.1v-6.5H57.6z"/>
	<path class="st1" d="M94.8,51.3c-0.9,1.3-2,2.4-3.4,3.1s-2.9,1.1-4.7,1.1c-1.4,0-2.7-0.2-3.8-0.7s-2.1-1.1-2.9-2.1
		c-0.8-0.9-1.4-2.1-1.9-3.5c-0.4-1.4-0.7-3.2-0.7-5.2v-16H82v16.1c0,1.5,0.1,2.7,0.3,3.6c0.2,1,0.6,1.7,1,2.3c0.5,0.6,1,1,1.7,1.2
		c0.7,0.2,1.4,0.3,2.3,0.3c1.9,0,3.4-0.4,4.5-1.1s2-1.8,2.6-3.1V28.1h4.6V55H95L94.8,51.3z"/>
	<path class="st1" d="M118.8,21.5v6.5H129v3.6h-10.3v14.6c0,1,0.1,1.9,0.4,2.6c0.3,0.7,0.6,1.2,1.1,1.6c0.5,0.4,1,0.7,1.6,0.9
		c0.6,0.2,1.2,0.2,1.9,0.2c0.5,0,1,0,1.5-0.1c0.5-0.1,1-0.1,1.6-0.2c0.5-0.1,1-0.2,1.4-0.3s0.8-0.2,1.1-0.2l0.6,3.3
		c-0.4,0.2-0.8,0.4-1.4,0.6c-0.5,0.2-1.1,0.3-1.8,0.4c-0.6,0.1-1.3,0.2-2.1,0.3c-0.7,0.1-1.4,0.1-2.2,0.1c-1.2,0-2.3-0.2-3.3-0.5
		s-1.9-0.9-2.7-1.6c-0.8-0.7-1.4-1.7-1.8-2.9c-0.4-1.2-0.7-2.6-0.7-4.2V31.6h-7.1v-3.6h7.1v-6.5H118.8z"/>
	<path class="st1" d="M137.2,41.3c0-1.9,0.3-3.7,0.8-5.4c0.6-1.7,1.4-3.1,2.4-4.3s2.3-2.2,3.8-2.9c1.5-0.7,3.2-1.1,5.1-1.1
		c1.9,0,3.6,0.4,5.1,1.1c1.5,0.7,2.8,1.7,3.9,2.9c1.1,1.2,1.9,2.7,2.4,4.3c0.6,1.7,0.8,3.5,0.8,5.4v0.5c0,1.9-0.3,3.7-0.8,5.4
		c-0.6,1.7-1.4,3.1-2.4,4.3c-1.1,1.2-2.3,2.2-3.8,2.9c-1.5,0.7-3.2,1-5.1,1c-1.9,0-3.6-0.3-5.1-1c-1.5-0.7-2.8-1.7-3.9-2.9
		s-1.9-2.7-2.4-4.3c-0.6-1.7-0.8-3.5-0.8-5.4V41.3z M141.8,41.8c0,1.3,0.2,2.6,0.5,3.8c0.3,1.2,0.8,2.3,1.4,3.2
		c0.6,0.9,1.4,1.6,2.4,2.2c1,0.5,2.1,0.8,3.4,0.8c1.3,0,2.4-0.3,3.3-0.8c1-0.5,1.8-1.3,2.4-2.2c0.6-0.9,1.1-2,1.4-3.2
		c0.3-1.2,0.5-2.5,0.5-3.8v-0.5c0-1.3-0.2-2.6-0.5-3.8c-0.3-1.2-0.8-2.3-1.4-3.2s-1.4-1.6-2.4-2.2s-2.1-0.8-3.3-0.8
		c-1.3,0-2.4,0.3-3.3,0.8s-1.7,1.3-2.4,2.2s-1.1,2-1.4,3.2c-0.3,1.2-0.5,2.5-0.5,3.8V41.8z"/>
	<path class="st1" d="M186.7,27.6c0.4,0,0.9,0,1.3,0c0.5,0,0.9,0.1,1.3,0.1c0.4,0.1,0.8,0.1,1.2,0.2s0.7,0.2,0.9,0.3l-0.6,4.5
		c-0.9-0.2-1.7-0.3-2.6-0.4c-0.8-0.1-1.6-0.1-2.5-0.1c-2.2,0-3.9,0.5-5.2,1.5s-2.3,2.3-3,4.1V55h-4.6V28.1h4.4l0.2,4.3
		c1.1-1.5,2.4-2.6,3.9-3.5C183,28,184.8,27.6,186.7,27.6z"/>
	<path class="st1" d="M200.4,28.1h13.8v23h8.8v4h-22.6v-4h9.2v-19h-9.2V28.1z M209,21c0-0.8,0.2-1.4,0.7-1.9
		c0.5-0.5,1.1-0.8,2.1-0.8c0.9,0,1.6,0.3,2.1,0.8c0.5,0.5,0.7,1.2,0.7,1.9c0,0.7-0.2,1.4-0.7,1.9c-0.5,0.5-1.2,0.7-2.1,0.7
		c-0.9,0-1.6-0.2-2.1-0.7C209.2,22.4,209,21.7,209,21z"/>
	<path class="st1" d="M248,55c-0.2-0.3-0.3-0.8-0.4-1.3c-0.1-0.5-0.2-1.1-0.2-1.6c-0.5,0.5-1,0.9-1.6,1.3c-0.6,0.4-1.2,0.8-1.9,1.1
		c-0.7,0.3-1.4,0.6-2.2,0.7c-0.8,0.2-1.6,0.3-2.5,0.3c-1.4,0-2.7-0.2-3.9-0.6c-1.2-0.4-2.1-1-2.9-1.7c-0.8-0.7-1.4-1.5-1.9-2.5
		c-0.4-1-0.7-2-0.7-3.2c0-1.5,0.3-2.8,0.9-3.9c0.6-1.1,1.4-2,2.5-2.8c1.1-0.7,2.4-1.3,3.9-1.7c1.5-0.4,3.2-0.5,5.1-0.5h5v-2.1
		c0-0.8-0.1-1.5-0.4-2.2c-0.3-0.6-0.7-1.2-1.3-1.7s-1.2-0.8-2-1.1c-0.8-0.2-1.7-0.4-2.7-0.4c-0.9,0-1.7,0.1-2.5,0.3
		c-0.7,0.2-1.3,0.5-1.8,0.9s-0.9,0.8-1.2,1.4c-0.3,0.5-0.4,1.1-0.4,1.6h-4.6c0-1,0.3-1.9,0.8-2.9c0.5-0.9,1.2-1.8,2.1-2.6
		c0.9-0.8,2-1.4,3.4-1.8c1.3-0.5,2.8-0.7,4.5-0.7c1.5,0,2.9,0.2,4.3,0.6c1.3,0.4,2.4,0.9,3.4,1.7c1,0.8,1.7,1.7,2.3,2.8
		s0.8,2.4,0.8,4v12.5c0,0.9,0.1,1.8,0.2,2.9c0.2,1,0.4,1.9,0.7,2.6V55H248z M239.9,51.5c0.9,0,1.7-0.1,2.5-0.3s1.5-0.5,2.1-0.9
		c0.6-0.4,1.2-0.8,1.7-1.3c0.5-0.5,0.8-1,1.1-1.5v-5.5H243c-2.7,0-4.8,0.4-6.3,1.2s-2.2,2.1-2.2,3.8c0,0.7,0.1,1.3,0.3,1.8
		c0.2,0.6,0.6,1,1,1.5s1,0.7,1.7,1S239,51.5,239.9,51.5z"/>
	<path class="st1" d="M261.6,16.8h13.8V51h8.8v4h-22.6v-4h9.2V20.8h-9.2V16.8z"/>
	<path class="st1" d="M302.4,21.5v6.5h10.3v3.6h-10.3v14.6c0,1,0.1,1.9,0.4,2.6s0.6,1.2,1.1,1.6s1,0.7,1.6,0.9
		c0.6,0.2,1.2,0.2,1.9,0.2c0.5,0,1,0,1.5-0.1c0.5-0.1,1-0.1,1.6-0.2c0.5-0.1,1-0.2,1.4-0.3s0.8-0.2,1.1-0.2l0.6,3.3
		c-0.4,0.2-0.8,0.4-1.4,0.6c-0.5,0.2-1.1,0.3-1.8,0.4c-0.6,0.1-1.3,0.2-2.1,0.3c-0.7,0.1-1.4,0.1-2.2,0.1c-1.2,0-2.3-0.2-3.3-0.5
		s-1.9-0.9-2.7-1.6c-0.8-0.7-1.4-1.7-1.8-2.9c-0.4-1.2-0.7-2.6-0.7-4.2V31.6h-7.1v-3.6h7.1v-6.5H302.4z"/>
	<path class="st1" d="M339.6,51.3c-0.9,1.3-2,2.4-3.4,3.1c-1.3,0.7-2.9,1.1-4.7,1.1c-1.4,0-2.7-0.2-3.8-0.7s-2.1-1.1-2.9-2.1
		c-0.8-0.9-1.4-2.1-1.9-3.5c-0.4-1.4-0.7-3.2-0.7-5.2v-16h4.6v16.1c0,1.5,0.1,2.7,0.3,3.6s0.6,1.7,1,2.3c0.5,0.6,1,1,1.7,1.2
		c0.7,0.2,1.4,0.3,2.3,0.3c1.9,0,3.4-0.4,4.5-1.1s2-1.8,2.6-3.1V28.1h4.6V55h-4.2L339.6,51.3z"/>
	<path class="st1" d="M360.7,52c0-0.5,0.1-1,0.2-1.4s0.4-0.8,0.7-1.1c0.3-0.3,0.7-0.6,1.1-0.8s1-0.3,1.6-0.3s1.1,0.1,1.6,0.3
		c0.5,0.2,0.8,0.4,1.1,0.8c0.3,0.3,0.5,0.7,0.7,1.1c0.2,0.4,0.2,0.9,0.2,1.4c0,0.5-0.1,0.9-0.2,1.4c-0.2,0.4-0.4,0.8-0.7,1.1
		c-0.3,0.3-0.7,0.6-1.1,0.7c-0.5,0.2-1,0.3-1.6,0.3s-1.1-0.1-1.6-0.3c-0.4-0.2-0.8-0.4-1.1-0.7c-0.3-0.3-0.5-0.7-0.7-1.1
		C360.8,52.9,360.7,52.5,360.7,52z"/>
	<path class="st1" d="M406.2,41.8c0,1.9-0.2,3.7-0.7,5.4c-0.5,1.7-1.1,3.1-2,4.3s-2,2.2-3.3,2.9c-1.3,0.7-2.8,1-4.5,1
		c-1.7,0-3.2-0.3-4.5-0.9c-1.3-0.6-2.4-1.5-3.2-2.6l-0.2,3.1h-4.2V16.8h4.6v14.2c0.9-1.1,1.9-1.9,3.2-2.5s2.7-0.9,4.4-0.9
		c1.7,0,3.3,0.3,4.6,1c1.3,0.7,2.4,1.6,3.3,2.8s1.6,2.7,2,4.3c0.5,1.7,0.7,3.5,0.7,5.5V41.8z M401.5,41.3c0-1.3-0.1-2.6-0.4-3.7
		c-0.3-1.2-0.7-2.2-1.2-3.1c-0.6-0.9-1.3-1.6-2.2-2.2c-0.9-0.5-2-0.8-3.4-0.8c-0.8,0-1.5,0.1-2.2,0.3c-0.7,0.2-1.3,0.5-1.8,0.9
		c-0.5,0.4-1,0.8-1.4,1.3c-0.4,0.5-0.8,1.1-1,1.7v11.8c0.3,0.6,0.7,1.2,1.1,1.7c0.4,0.5,0.9,1,1.4,1.3c0.5,0.4,1.1,0.7,1.8,0.9
		s1.4,0.3,2.2,0.3c1.3,0,2.3-0.3,3.2-0.8c0.9-0.5,1.6-1.2,2.2-2.1c0.6-0.9,1-1.9,1.3-3.1c0.3-1.2,0.4-2.4,0.4-3.7V41.3z"/>
	<path class="st1" d="M425.8,55.5c-1.9,0-3.6-0.3-5.2-1c-1.6-0.6-2.9-1.6-4.1-2.7s-2-2.5-2.6-4.1c-0.6-1.6-0.9-3.3-0.9-5.2v-1
		c0-2.2,0.3-4.1,1-5.8c0.7-1.7,1.6-3.2,2.8-4.4c1.2-1.2,2.5-2.1,3.9-2.7c1.5-0.6,3-0.9,4.5-0.9c1.9,0,3.6,0.3,5.1,1
		c1.5,0.7,2.7,1.6,3.6,2.8s1.7,2.6,2.2,4.2c0.5,1.6,0.7,3.4,0.7,5.2v2.1h-19.2c0,1.2,0.3,2.4,0.7,3.5c0.4,1.1,1,2,1.7,2.8
		c0.7,0.8,1.6,1.4,2.7,1.9c1,0.5,2.2,0.7,3.4,0.7c1.6,0,3.1-0.3,4.4-1s2.3-1.5,3.2-2.6l2.8,2.2c-0.4,0.7-1,1.3-1.7,2
		c-0.7,0.6-1.4,1.2-2.3,1.7s-1.9,0.9-3,1.2S427.1,55.5,425.8,55.5z M425.2,31.3c-0.9,0-1.8,0.2-2.6,0.5s-1.6,0.8-2.2,1.5
		s-1.2,1.5-1.7,2.4c-0.5,1-0.8,2.1-1,3.3h14.5v-0.3c0-0.9-0.2-1.8-0.5-2.7c-0.3-0.9-0.7-1.7-1.3-2.4s-1.3-1.3-2.1-1.7
		C427.4,31.6,426.4,31.3,425.2,31.3z"/>
</g>
<path id="Polygon_1" class="st1" d="M30.3,17.5L0,35V0L30.3,17.5z"/>
</svg>
